<svg version="1.2" baseProfile="tiny-ps" xmlns="http://www.w3.org/2000/svg" viewBox="0 0 512 512" width="512" height="512">
	<title>audit-svg</title>
	<style>
		tspan { white-space:pre }
		.shp0 { fill: #0000ff } 
	</style>
	<g id="Layer">
		<path id="Layer" class="shp0" d="M272.42 62.91L387.85 62.91C391.99 62.91 395.35 59.56 395.35 55.41C395.35 51.27 391.99 47.91 387.85 47.91L272.42 47.91C268.28 47.91 264.92 51.27 264.92 55.41C264.92 59.56 268.28 62.91 272.42 62.91Z" />
		<path id="Layer" class="shp0" d="M272.42 99.02L387.85 99.02C391.99 99.02 395.35 95.66 395.35 91.52C395.35 87.38 391.99 84.02 387.85 84.02L272.42 84.02C268.28 84.02 264.92 87.38 264.92 91.52C264.92 95.66 268.28 99.02 272.42 99.02Z" />
		<path id="Layer" class="shp0" d="M272.42 135.12L387.85 135.12C391.99 135.12 395.35 131.76 395.35 127.62C395.35 123.48 391.99 120.12 387.85 120.12L272.42 120.12C268.28 120.12 264.92 123.48 264.92 127.62C264.92 131.76 268.28 135.12 272.42 135.12Z" />
		<path id="Layer" class="shp0" d="M272.42 171.22L354.39 171.22C358.54 171.22 361.89 167.87 361.89 163.72C361.89 159.58 358.54 156.22 354.39 156.22L272.42 156.22C268.28 156.22 264.92 159.58 264.92 163.72C264.92 167.87 268.28 171.22 272.42 171.22Z" />
		<path id="Layer" fill-rule="evenodd" class="shp0" d="M480.03 170.07C497.66 170.07 512 184.41 512 202.04L512 286.58C512 304.21 497.66 318.55 480.03 318.55C478.83 318.55 477.65 318.48 476.48 318.35L476.48 382.79C476.48 386.93 473.12 390.29 468.98 390.29C464.84 390.29 461.48 386.93 461.48 382.79L461.48 253.91L417.16 253.91L417.16 435.53L431.82 435.53L431.82 302.13C431.82 297.99 435.18 294.63 439.32 294.63C443.46 294.63 446.82 297.99 446.82 302.13L446.82 435.53L461.48 435.53L461.48 412.77C461.48 412.76 461.48 412.74 461.48 412.73L461.48 411.88C461.48 407.74 464.84 404.38 468.98 404.38C473.13 404.38 476.48 407.74 476.48 411.88L476.48 457.14C476.48 475.06 463.73 490.06 446.82 493.54L446.82 502.35C446.82 506.49 443.46 509.85 439.32 509.85C435.18 509.85 431.82 506.49 431.82 502.35L431.82 493.54C419.17 490.94 408.85 481.89 404.45 470C402.71 470.19 400.96 470.31 399.2 470.31L84.31 470.31C58.05 470.31 36.69 448.95 36.69 422.69L36.69 358.16C14.25 339.01 0 310.55 0 278.81C0 247.07 14.25 218.6 36.69 199.45L36.69 141.53C36.69 126.35 42.84 111.49 53.57 100.76L135.3 19.03C146.03 8.3 160.89 2.15 176.07 2.15L399.2 2.15C425.46 2.15 446.82 23.51 446.82 49.77L446.82 109.94C457.3 112.93 465.13 122.06 466.1 133.49L469.38 171.88C472.76 170.69 476.35 170.07 480.03 170.07ZM473.14 231.43C473.14 227.31 469.78 223.95 465.66 223.95L412.98 223.95C408.86 223.95 405.5 227.31 405.5 231.43C405.5 235.55 408.86 238.91 412.98 238.91L465.66 238.91C469.78 238.91 473.14 235.55 473.14 231.43ZM451.16 134.76C450.63 128.56 445.54 123.89 439.32 123.89C433.1 123.89 428.01 128.56 427.48 134.76L421.15 208.95L457.49 208.95L451.16 134.76ZM84.31 455.31L399.2 455.31C400.19 455.31 401.18 455.25 402.16 455.16L402.16 411.88C402.16 411.87 402.16 411.86 402.16 411.84L402.16 251.13C395.22 247.3 390.5 239.9 390.5 231.43C390.5 221.47 397.01 213.01 406 210.07L412.54 133.49C413.51 122.06 421.34 112.92 431.83 109.93L431.83 49.77C431.83 31.78 417.19 17.15 399.2 17.15L184.67 17.15C184.66 17.15 184.64 17.15 184.63 17.15C172.59 17.15 162.79 26.95 162.79 38.99L162.79 80.64C162.79 106.89 141.43 128.25 115.17 128.25L73.53 128.25C61.5 128.25 51.71 138.03 51.69 150.06L51.69 188.77C67.15 179.69 85.14 174.48 104.33 174.48C118.83 174.48 132.87 177.4 146.05 183.17C149.84 184.83 151.57 189.25 149.91 193.05C148.25 196.84 143.83 198.57 140.03 196.91C128.77 191.98 116.75 189.48 104.33 189.48C55.07 189.48 15 229.55 15 278.81C15 328.06 55.07 368.13 104.33 368.13C153.59 368.13 193.66 328.06 193.66 278.81C193.66 253.15 182.61 228.7 163.33 211.74C160.23 209 159.92 204.26 162.66 201.15C165.4 198.04 170.14 197.74 173.25 200.48C195.75 220.29 208.66 248.84 208.66 278.81C208.66 336.33 161.86 383.13 104.33 383.13C85.14 383.13 67.15 377.92 51.69 368.84L51.69 422.69C51.69 440.68 66.32 455.31 84.31 455.31L84.31 455.31ZM64.18 111.37C62.83 112.71 61.59 114.15 60.45 115.66C64.52 114.11 68.92 113.25 73.53 113.25L115.17 113.25C133.16 113.25 147.79 98.62 147.79 80.63L147.79 38.99C147.79 34.39 148.65 29.98 150.2 25.91C148.69 27.06 147.25 28.29 145.91 29.64L64.18 111.37ZM417.16 450.53L417.16 457.14C417.16 469.36 427.1 479.3 439.32 479.3C451.54 479.3 461.48 469.36 461.48 457.14L461.48 450.53L417.16 450.53ZM497 202.04C497 192.68 489.38 185.07 480.03 185.07C476.68 185.07 473.48 186.04 470.74 187.83L472.64 210.07C481.63 213.01 488.14 221.47 488.14 231.43C488.14 239.91 483.42 247.3 476.48 251.13L476.48 303.18C477.63 303.42 478.82 303.55 480.03 303.55C489.39 303.55 497 295.94 497 286.58L497 202.04Z" />
		<path id="Layer" fill-rule="evenodd" class="shp0" d="M104.33 199.37C148.13 199.37 183.76 235.01 183.76 278.81C183.76 322.61 148.13 358.24 104.33 358.24C60.53 358.24 24.89 322.61 24.89 278.81C24.89 235.01 60.53 199.37 104.33 199.37ZM168.76 278.81C168.76 243.28 139.86 214.37 104.33 214.37C68.8 214.37 39.89 243.28 39.89 278.81C39.89 314.34 68.8 343.24 104.33 343.24C139.86 343.24 168.76 314.34 168.76 278.81Z" />
		<path id="Layer" class="shp0" d="M114.7 271.3C107.58 268.78 99.71 265.74 95.27 262.26C93.77 261.08 93.13 258.53 93.66 255.76C94.18 252.97 96.05 249.61 99.73 248.5C108.22 245.94 113.83 250.33 114.44 250.83C117.63 253.48 122.35 253.05 125 249.86C127.65 246.68 127.22 241.95 124.03 239.3C122.79 238.27 118.24 234.83 111.34 233.36L111.34 229.91C111.34 225.77 107.99 222.41 103.84 222.41C99.7 222.41 96.34 225.77 96.34 229.91L96.34 233.87C96.03 233.96 95.72 234.04 95.41 234.13C86.94 236.68 80.62 243.9 78.91 252.98C77.34 261.32 80.06 269.4 86.01 274.06C90.96 277.95 97.83 281.24 109.7 285.44C117.87 288.33 117.69 294.95 117.23 297.66C116.31 303.13 111.72 309.04 103.8 309.09C96.14 309.14 93.75 308.76 87.85 304.9C84.38 302.63 79.73 303.6 77.47 307.07C75.2 310.54 76.17 315.19 79.64 317.45C85.97 321.59 90.61 323.24 96.35 323.81L96.35 327.7C96.35 331.84 99.7 335.2 103.85 335.2C107.99 335.2 111.35 331.84 111.35 327.7L111.35 323.09C122.94 319.97 130.37 309.99 132.03 300.15C134.18 287.32 127.22 275.72 114.7 271.3L114.7 271.3Z" />
		<path id="Layer" class="shp0" d="M61.36 271.1C57.22 271.1 53.86 274.45 53.86 278.6L53.86 279.02C53.86 283.16 57.22 286.52 61.36 286.52C65.5 286.52 68.86 283.16 68.86 279.02L68.86 278.6C68.86 274.45 65.5 271.1 61.36 271.1Z" />
		<path id="Layer" class="shp0" d="M139.79 278.6L139.79 279.02C139.79 283.16 143.15 286.52 147.29 286.52C151.44 286.52 154.79 283.16 154.79 279.02L154.79 278.6C154.79 274.45 151.44 271.1 147.29 271.1C143.15 271.1 139.79 274.45 139.79 278.6Z" />
		<path id="Layer" class="shp0" d="M325.17 352.44C326.79 354.06 329.06 354.84 331.33 354.58C333.61 354.32 335.64 353.03 336.84 351.08L378.21 284.36C380.39 280.84 379.31 276.22 375.79 274.04C372.27 271.86 367.64 272.94 365.46 276.46L329.08 335.14L295.74 301.8C294.08 300.13 291.74 299.35 289.41 299.67C287.08 299.99 285.04 301.38 283.89 303.43L231.78 396.5L195.8 372.89C194.04 371.73 191.87 371.37 189.82 371.89C187.78 372.42 186.05 373.78 185.06 375.65L161.04 421.02C159.1 424.68 160.5 429.22 164.16 431.16C165.28 431.75 166.48 432.03 167.66 432.03C170.35 432.03 172.95 430.58 174.3 428.04L194.46 389.95L230.27 413.45C232.01 414.59 234.15 414.96 236.17 414.47C238.19 413.97 239.92 412.66 240.93 410.84L292.14 319.41L325.17 352.44Z" />
		<path id="Layer" class="shp0" d="M382.51 414.36L297.11 414.36C292.97 414.36 289.61 417.72 289.61 421.86C289.61 426 292.97 429.36 297.11 429.36L382.51 429.36C386.65 429.36 390.01 426 390.01 421.86C390.01 417.72 386.65 414.36 382.51 414.36Z" />
		<path id="Layer" class="shp0" d="M382.51 384.28L330.47 384.28C326.33 384.28 322.97 387.63 322.97 391.78C322.97 395.92 326.33 399.28 330.47 399.28L382.51 399.28C386.66 399.28 390.01 395.92 390.01 391.78C390.01 387.63 386.65 384.28 382.51 384.28L382.51 384.28Z" />
	</g>
</svg>