<svg version="1.2" baseProfile="tiny-ps" xmlns="http://www.w3.org/2000/svg" viewBox="0 0 64 64" width="64" height="64">
	<title>database-svg</title>
	<style>
		tspan { white-space:pre }
		.shp0 { fill: #ffffff } 
	</style>
	<g id="Database-cloud-laptop-computer-smartphone">
		<path id="Layer" fill-rule="evenodd" class="shp0" d="M41.38 21.08C41.5 21.13 41.61 21.2 41.71 21.29C41.8 21.39 41.87 21.5 41.92 21.62C41.97 21.74 42 21.87 42 22L42 46C42 46.13 41.97 46.26 41.92 46.38C41.87 46.5 41.8 46.61 41.71 46.71C41.61 46.8 41.5 46.87 41.38 46.92C41.26 46.97 41.13 47 41 47L23 47C22.87 47 22.74 46.97 22.62 46.92C22.5 46.87 22.39 46.8 22.29 46.71C22.2 46.61 22.13 46.5 22.08 46.38C22.03 46.26 22 46.13 22 46L22 22C22 21.87 22.03 21.74 22.08 21.62C22.13 21.5 22.2 21.39 22.29 21.29C22.39 21.2 22.5 21.13 22.62 21.08C22.74 21.03 22.87 21 23 21L41 21C41.13 21 41.26 21.03 41.38 21.08ZM40 39L24 39L24 45L40 45L40 39ZM40 31L24 31L24 37L40 37L40 31ZM40 23L24 23L24 29L40 29L40 23Z" />
		<path id="Layer" fill-rule="evenodd" class="shp0" d="M59 2C59.39 2 59.78 2.08 60.15 2.23C60.51 2.38 60.84 2.6 61.12 2.88C61.4 3.16 61.62 3.49 61.77 3.85C61.92 4.22 62 4.61 62 5L62 13C62 13.39 61.92 13.78 61.77 14.15C61.62 14.51 61.4 14.84 61.12 15.12C60.84 15.4 60.51 15.62 60.15 15.77C59.78 15.92 59.39 16 59 16L55 16L55 18L57 18L57 20L47 20L47 18L49 18L49 16L45 16C44.61 16 44.22 15.92 43.85 15.77C43.49 15.62 43.16 15.4 42.88 15.12C42.6 14.84 42.38 14.51 42.23 14.15C42.08 13.78 42 13.39 42 13L42 5C42 4.61 42.08 4.22 42.23 3.85C42.38 3.49 42.6 3.16 42.88 2.88C43.16 2.6 43.49 2.38 43.85 2.23C44.22 2.08 44.61 2 45 2L59 2ZM53 16L51 16L51 18L53 18L53 16ZM60 12L44 12L44 13C44 13.13 44.03 13.26 44.08 13.38C44.13 13.5 44.2 13.61 44.29 13.71C44.39 13.8 44.5 13.87 44.62 13.92C44.74 13.97 44.87 14 45 14L59 14C59.13 14 59.26 13.97 59.38 13.92C59.5 13.87 59.61 13.8 59.71 13.71C59.8 13.61 59.87 13.5 59.92 13.38C59.97 13.26 60 13.13 60 13L60 12ZM60 5C60 4.87 59.97 4.74 59.92 4.62C59.87 4.5 59.8 4.39 59.71 4.29C59.61 4.2 59.5 4.13 59.38 4.08C59.26 4.03 59.13 4 59 4L45 4C44.87 4 44.74 4.03 44.62 4.08C44.5 4.13 44.39 4.2 44.29 4.29C44.2 4.39 44.13 4.5 44.08 4.62C44.03 4.74 44 4.87 44 5L44 10L60 10L60 5Z" />
		<path id="Layer" fill-rule="evenodd" class="shp0" d="M61.38 56.08C61.5 56.13 61.61 56.2 61.71 56.29C61.8 56.39 61.87 56.5 61.92 56.62C61.97 56.74 62 56.87 62 57L62 59C62 59.39 61.92 59.78 61.77 60.15C61.62 60.51 61.4 60.84 61.12 61.12C60.84 61.4 60.51 61.62 60.15 61.77C59.78 61.92 59.39 62 59 62L45 62C44.61 62 44.22 61.92 43.85 61.77C43.49 61.62 43.16 61.4 42.88 61.12C42.6 60.84 42.38 60.51 42.23 60.15C42.08 59.78 42 59.39 42 59L42 57C42 56.87 42.03 56.74 42.08 56.62C42.13 56.5 42.2 56.39 42.29 56.29C42.39 56.2 42.5 56.13 42.62 56.08C42.74 56.03 42.87 56 43 56L43 49C43 48.61 43.08 48.22 43.23 47.85C43.38 47.49 43.6 47.16 43.88 46.88C44.16 46.6 44.49 46.38 44.85 46.23C45.22 46.08 45.61 46 46 46L58 46C58.39 46 58.78 46.08 59.15 46.23C59.51 46.38 59.84 46.6 60.12 46.88C60.4 47.16 60.62 47.49 60.77 47.85C60.92 48.22 61 48.61 61 49L61 56C61.13 56 61.26 56.03 61.38 56.08ZM45 56L59 56L59 49C59 48.87 58.97 48.74 58.92 48.62C58.87 48.5 58.8 48.39 58.71 48.29C58.61 48.2 58.5 48.13 58.38 48.08C58.26 48.03 58.13 48 58 48L46 48C45.87 48 45.74 48.03 45.62 48.08C45.5 48.13 45.39 48.2 45.29 48.29C45.2 48.39 45.13 48.5 45.08 48.62C45.03 48.74 45 48.87 45 49L45 56ZM60 58L44 58L44 59C44 59.13 44.03 59.26 44.08 59.38C44.13 59.5 44.2 59.61 44.29 59.71C44.39 59.8 44.5 59.87 44.62 59.92C44.74 59.97 44.87 60 45 60L59 60C59.13 60 59.26 59.97 59.38 59.92C59.5 59.87 59.61 59.8 59.71 59.71C59.8 59.61 59.87 59.5 59.92 59.38C59.97 59.26 60 59.13 60 59L60 58Z" />
		<path id="Layer" fill-rule="evenodd" class="shp0" d="M17 48C17.39 48 17.78 48.08 18.15 48.23C18.51 48.38 18.84 48.6 19.12 48.88C19.4 49.16 19.62 49.49 19.77 49.85C19.92 50.22 20 50.61 20 51L20 59C20 59.39 19.92 59.78 19.77 60.15C19.62 60.51 19.4 60.84 19.12 61.12C18.84 61.4 18.51 61.62 18.15 61.77C17.78 61.92 17.39 62 17 62L5 62C4.61 62 4.22 61.92 3.85 61.77C3.49 61.62 3.16 61.4 2.88 61.12C2.6 60.84 2.38 60.51 2.23 60.15C2.08 59.78 2 59.39 2 59L2 47C2 46.61 2.08 46.22 2.23 45.85C2.38 45.49 2.6 45.16 2.88 44.88C3.16 44.6 3.49 44.38 3.85 44.23C4.22 44.08 4.61 44 5 44L13 44C13.39 44 13.78 44.08 14.15 44.23C14.51 44.38 14.84 44.6 15.12 44.88C15.4 45.16 15.62 45.49 15.77 45.85C15.92 46.22 16 46.61 16 47L16 48L17 48ZM10.18 60C10.15 59.92 10.13 59.84 10.1 59.76C10.08 59.67 10.06 59.59 10.05 59.51C10.03 59.42 10.02 59.34 10.01 59.25C10 59.17 10 59.09 10 59L10 51C10 50.61 10.08 50.22 10.23 49.85C10.38 49.49 10.6 49.16 10.88 48.88C11.16 48.6 11.49 48.38 11.85 48.23C12.22 48.08 12.61 48 13 48L14 48L14 47C14 46.87 13.97 46.74 13.92 46.62C13.87 46.5 13.8 46.39 13.71 46.29C13.61 46.2 13.5 46.13 13.38 46.08C13.26 46.03 13.13 46 13 46L5 46C4.87 46 4.74 46.03 4.62 46.08C4.5 46.13 4.39 46.2 4.29 46.29C4.2 46.39 4.13 46.5 4.08 46.62C4.03 46.74 4 46.87 4 47L4 59C4 59.13 4.03 59.26 4.08 59.38C4.13 59.5 4.2 59.61 4.29 59.71C4.39 59.8 4.5 59.87 4.62 59.92C4.74 59.97 4.87 60 5 60L10.18 60ZM18 51C18 50.87 17.97 50.74 17.92 50.62C17.87 50.5 17.8 50.39 17.71 50.29C17.61 50.2 17.5 50.13 17.38 50.08C17.26 50.03 17.13 50 17 50L13 50C12.87 50 12.74 50.03 12.62 50.08C12.5 50.13 12.39 50.2 12.29 50.29C12.2 50.39 12.13 50.5 12.08 50.62C12.03 50.74 12 50.87 12 51L12 59C12 59.13 12.03 59.26 12.08 59.38C12.13 59.5 12.2 59.61 12.29 59.71C12.39 59.8 12.5 59.87 12.62 59.92C12.74 59.97 12.87 60 13 60L17 60C17.13 60 17.26 59.97 17.38 59.92C17.5 59.87 17.61 59.8 17.71 59.71C17.8 59.61 17.87 59.5 17.92 59.38C17.97 59.26 18 59.13 18 59L18 51Z" />
		<path id="Layer" fill-rule="evenodd" class="shp0" d="M23.92 8.08C25.15 8.3 26.25 8.98 27.01 9.98C27.77 10.97 28.12 12.22 28.01 13.46C27.89 14.71 27.31 15.87 26.39 16.71C25.46 17.55 24.25 18.01 23 18L8 18C6.47 17.99 5 17.41 3.89 16.35C2.78 15.3 2.12 13.86 2.03 12.34C1.95 10.81 2.45 9.31 3.43 8.14C4.42 6.97 5.81 6.22 7.33 6.04C7.53 5.45 7.83 4.9 8.2 4.41C8.57 3.91 9.02 3.48 9.52 3.12C10.03 2.76 10.58 2.48 11.17 2.29C11.76 2.1 12.38 2 13 2C13.44 2 13.88 2.05 14.31 2.14C14.74 2.24 15.16 2.38 15.56 2.57C15.96 2.76 16.33 3 16.68 3.27C17.03 3.55 17.34 3.86 17.62 4.2C18.29 4 18.99 3.95 19.68 4.04C20.37 4.14 21.04 4.37 21.63 4.74C22.23 5.11 22.74 5.59 23.13 6.17C23.52 6.74 23.79 7.39 23.92 8.08ZM25.12 15.12C25.68 14.56 26 13.8 26 13C26 12.2 25.68 11.44 25.12 10.88C24.56 10.32 23.8 10 23 10C22.87 10 22.74 9.97 22.62 9.92C22.5 9.87 22.39 9.8 22.29 9.71C22.2 9.61 22.13 9.5 22.08 9.38C22.03 9.26 22 9.13 22 9C22 8.49 21.88 7.99 21.63 7.54C21.39 7.1 21.03 6.72 20.6 6.45C20.17 6.18 19.68 6.03 19.17 6C18.66 5.98 18.16 6.08 17.7 6.31C17.59 6.37 17.47 6.4 17.35 6.41C17.22 6.42 17.1 6.41 16.98 6.38C16.86 6.34 16.75 6.28 16.65 6.21C16.55 6.13 16.47 6.04 16.41 5.93C15.99 5.24 15.38 4.69 14.65 4.36C13.92 4.03 13.1 3.92 12.31 4.06C11.51 4.2 10.78 4.57 10.21 5.14C9.63 5.7 9.24 6.42 9.08 7.21C9.06 7.32 9.01 7.43 8.95 7.53C8.89 7.63 8.81 7.72 8.72 7.79C8.63 7.86 8.52 7.92 8.41 7.96C8.3 8 8.19 8.01 8.07 8.01C8.06 8.01 8.04 8.01 8.03 8.01C8.02 8.01 8 8.01 7.99 8C7.98 8 7.96 8 7.95 8C7.94 8 7.92 7.99 7.91 7.99C6.86 8.02 5.87 8.46 5.14 9.22C4.41 9.98 4.01 10.99 4.03 12.04C4.04 13.09 4.46 14.09 5.2 14.83C5.95 15.57 6.95 15.99 8 16L23 16C23.8 16 24.56 15.68 25.12 15.12Z" />
		<path id="Layer" class="shp0" d="M26 25L28 25L28 27L26 27L26 25Z" />
		<path id="Layer" class="shp0" d="M31 25L33 25L33 27L31 27L31 25Z" />
		<path id="Layer" class="shp0" d="M36 25L38 25L38 27L36 27L36 25Z" />
		<path id="Layer" class="shp0" d="M26 33L28 33L28 35L26 35L26 33Z" />
		<path id="Layer" class="shp0" d="M31 33L33 33L33 35L31 35L31 33Z" />
		<path id="Layer" class="shp0" d="M36 33L38 33L38 35L36 35L36 33Z" />
		<path id="Layer" class="shp0" d="M26 41L28 41L28 43L26 43L26 41Z" />
		<path id="Layer" class="shp0" d="M31 41L33 41L33 43L31 43L31 41Z" />
		<path id="Layer" class="shp0" d="M36 41L38 41L38 43L36 43L36 41Z" />
		<path id="Layer" class="shp0" d="M53 29L53 22L51 22L51 28L44 28L44 30L52 30C52.13 30 52.26 29.97 52.38 29.92C52.5 29.87 52.61 29.8 52.71 29.71C52.8 29.61 52.87 29.5 52.92 29.38C52.97 29.26 53 29.13 53 29Z" />
		<path id="Layer" class="shp0" d="M44 36L51 36L51 44L53 44L53 35C53 34.87 52.97 34.74 52.92 34.62C52.87 34.5 52.8 34.39 52.71 34.29C52.61 34.2 52.5 34.13 52.38 34.08C52.26 34.03 52.13 34 52 34L44 34L44 36Z" />
		<path id="Layer" class="shp0" d="M13 20L11 20L11 29C11 29.13 11.03 29.26 11.08 29.38C11.13 29.5 11.2 29.61 11.29 29.71C11.39 29.8 11.5 29.87 11.62 29.92C11.74 29.97 11.87 30 12 30L20 30L20 28L13 28L13 20Z" />
		<path id="Layer" class="shp0" d="M11 35L11 42L13 42L13 36L20 36L20 34L12 34C11.87 34 11.74 34.03 11.62 34.08C11.5 34.13 11.39 34.2 11.29 34.29C11.2 34.39 11.13 34.5 11.08 34.62C11.03 34.74 11 34.87 11 35Z" />
	</g>
</svg>