<svg version="1.2" baseProfile="tiny-ps" xmlns="http://www.w3.org/2000/svg" viewBox="0 0 64 64" width="64" height="64">
	<title>consult-svg</title>
	<style>
		tspan { white-space:pre }
		.shp0 { fill: #ffffff } 
	</style>
	<g id="Consult-Talk">
		<path id="Layer" class="shp0" d="M16 25L18 25L18 27L16 27L16 25Z" />
		<path id="Layer" class="shp0" d="M26 25L28 25L28 27L26 27L26 25Z" />
		<path id="Layer" fill-rule="evenodd" class="shp0" d="M61.14 36.01C61.26 36.03 61.37 36.06 61.48 36.12C61.58 36.18 61.68 36.25 61.76 36.34C61.83 36.44 61.9 36.54 61.94 36.65C61.98 36.76 62 36.88 62 37L62 43C62 43.12 61.98 43.24 61.94 43.35C61.9 43.46 61.83 43.56 61.76 43.65C61.68 43.74 61.58 43.82 61.48 43.88C61.37 43.93 61.26 43.97 61.14 43.99L57.24 44.55C57.19 44.68 57.14 44.82 57.09 44.95C57.04 45.09 56.99 45.22 56.93 45.36C56.88 45.49 56.82 45.62 56.76 45.75C56.7 45.89 56.64 46.02 56.58 46.15L58.94 49.3C59.01 49.39 59.07 49.5 59.1 49.62C59.14 49.73 59.15 49.85 59.14 49.97C59.13 50.09 59.1 50.21 59.05 50.31C59 50.42 58.93 50.52 58.85 50.61L54.61 54.85C54.52 54.93 54.42 55 54.32 55.05C54.21 55.1 54.09 55.13 53.97 55.14C53.85 55.15 53.73 55.13 53.62 55.1C53.5 55.07 53.4 55.01 53.3 54.94L50.15 52.58C50.02 52.64 49.89 52.7 49.76 52.76C49.62 52.82 49.49 52.88 49.36 52.93C49.22 52.99 49.09 53.04 48.96 53.09C48.82 53.14 48.68 53.19 48.55 53.23L47.99 57.14C47.97 57.26 47.94 57.37 47.88 57.48C47.82 57.58 47.75 57.68 47.66 57.76C47.56 57.83 47.46 57.9 47.35 57.94C47.24 57.98 47.12 58 47 58L42 58L42 61C42 61.13 41.97 61.26 41.92 61.38C41.87 61.5 41.8 61.61 41.71 61.71C41.61 61.8 41.5 61.87 41.38 61.92C41.26 61.97 41.13 62 41 62L3 62C2.87 62 2.74 61.97 2.62 61.92C2.5 61.87 2.39 61.8 2.29 61.71C2.2 61.61 2.13 61.5 2.08 61.38C2.03 61.26 2 61.13 2 61L2 51.77C2 50.68 2.16 49.59 2.48 48.54C2.8 47.5 3.27 46.5 3.88 45.6C4.5 44.69 5.24 43.88 6.09 43.2C6.95 42.51 7.9 41.96 8.91 41.56L17 38.32L17 36.79C16.25 36.4 15.55 35.94 14.91 35.39C14.27 34.85 13.69 34.24 13.19 33.56C12.69 32.89 12.26 32.16 11.93 31.39C11.59 30.62 11.34 29.81 11.19 28.99C11.13 28.99 11.06 29 11 29L9 29C8.61 29 8.22 28.92 7.85 28.77C7.49 28.62 7.16 28.4 6.88 28.12C6.6 27.84 6.38 27.51 6.23 27.15C6.08 26.78 6 26.39 6 26L6 23C6 22.69 6.05 22.39 6.14 22.09C6.24 21.8 6.38 21.53 6.55 21.28C6.73 21.02 6.95 20.8 7.19 20.62C7.44 20.43 7.71 20.29 8 20.18L8 19C8 15.29 9.47 11.73 12.1 9.1C14.73 6.47 18.29 5 22 5C25.71 5 29.27 6.47 31.9 9.1C34.53 11.73 36 15.29 36 19L36 20.18C36.29 20.29 36.56 20.43 36.81 20.62C37.05 20.8 37.27 21.02 37.45 21.28C37.62 21.53 37.76 21.8 37.86 22.09C37.95 22.39 38 22.69 38 23L38 26C38 26.31 37.95 26.61 37.86 26.91C37.76 27.2 37.62 27.47 37.45 27.72C37.27 27.98 37.05 28.2 36.81 28.38C36.56 28.57 36.29 28.71 36 28.82L36 31C36 31.39 35.92 31.78 35.77 32.15C35.62 32.51 35.4 32.84 35.12 33.12C34.84 33.4 34.51 33.62 34.15 33.77C33.78 33.92 33.39 34 33 34L30.48 34C30.24 34.29 29.99 34.56 29.72 34.83C29.45 35.09 29.17 35.34 28.88 35.57C28.59 35.8 28.29 36.02 27.97 36.23C27.66 36.43 27.33 36.62 27 36.79L27 38.32L35.09 41.56C35.11 41.57 35.13 41.58 35.16 41.59C34.4 37.58 36.41 33.56 40.06 31.75C43.71 29.93 48.13 30.77 50.86 33.79C53.6 36.82 53.99 41.29 51.83 44.75C49.66 48.2 45.46 49.8 41.55 48.65C41.62 48.9 41.69 49.16 41.75 49.42C41.8 49.67 41.85 49.93 41.89 50.19C41.92 50.46 41.95 50.72 41.97 50.98C41.99 51.24 42 51.51 42 51.77L42 56L46.13 56L46.65 52.33C46.67 52.23 46.69 52.14 46.73 52.05C46.77 51.97 46.83 51.89 46.89 51.81C46.95 51.74 47.02 51.68 47.1 51.63C47.18 51.58 47.27 51.54 47.36 51.51C47.57 51.45 47.78 51.38 47.98 51.31C48.19 51.24 48.39 51.16 48.59 51.08C48.79 51 48.99 50.91 49.19 50.82C49.38 50.73 49.57 50.63 49.76 50.52C49.85 50.48 49.94 50.44 50.03 50.42C50.12 50.4 50.22 50.4 50.32 50.4C50.41 50.41 50.51 50.43 50.59 50.46C50.68 50.5 50.77 50.54 50.84 50.6L53.8 52.83L56.82 49.81L54.6 46.85C54.54 46.77 54.5 46.69 54.46 46.6C54.43 46.51 54.41 46.42 54.4 46.32C54.4 46.23 54.4 46.13 54.42 46.04C54.44 45.94 54.48 45.85 54.52 45.77C54.63 45.58 54.73 45.39 54.82 45.19C54.91 45 55 44.8 55.08 44.6C55.16 44.4 55.24 44.19 55.31 43.99C55.38 43.78 55.45 43.58 55.51 43.37C55.54 43.28 55.58 43.19 55.63 43.11C55.68 43.03 55.74 42.96 55.81 42.89C55.89 42.83 55.97 42.78 56.05 42.74C56.14 42.7 56.23 42.67 56.33 42.66L60 42.14L60 37.87L56.33 37.35C56.23 37.33 56.14 37.31 56.05 37.27C55.97 37.23 55.89 37.17 55.81 37.11C55.74 37.05 55.68 36.98 55.63 36.9C55.58 36.82 55.54 36.73 55.51 36.64C55.45 36.43 55.38 36.22 55.31 36.02C55.24 35.81 55.16 35.61 55.08 35.41C55 35.21 54.91 35.01 54.82 34.81C54.73 34.62 54.63 34.43 54.52 34.24C54.48 34.15 54.44 34.06 54.42 33.97C54.4 33.88 54.4 33.78 54.4 33.68C54.41 33.59 54.43 33.49 54.46 33.41C54.5 33.32 54.54 33.23 54.6 33.16L56.82 30.19L53.81 27.18L50.85 29.4C50.77 29.46 50.69 29.5 50.6 29.53C50.51 29.57 50.41 29.59 50.32 29.6C50.22 29.6 50.13 29.6 50.03 29.58C49.94 29.55 49.85 29.52 49.77 29.48C49.58 29.37 49.38 29.27 49.19 29.18C48.99 29.09 48.79 29 48.59 28.92C48.39 28.83 48.19 28.76 47.99 28.69C47.78 28.61 47.58 28.55 47.37 28.49C47.28 28.46 47.19 28.42 47.11 28.37C47.03 28.32 46.95 28.26 46.89 28.18C46.83 28.11 46.78 28.03 46.74 27.94C46.7 27.86 46.67 27.76 46.66 27.67L46.13 24L41.87 24L41.34 27.67L39.36 27.39L40.01 22.86C40.03 22.74 40.06 22.63 40.12 22.52C40.18 22.42 40.25 22.32 40.34 22.24C40.44 22.17 40.54 22.1 40.65 22.06C40.76 22.02 40.88 22 41 22L44 22L44 15.24C43.53 14.87 43.11 14.44 42.74 13.98C42.37 13.51 42.05 13 41.79 12.46C41.53 11.92 41.33 11.36 41.2 10.78C41.07 10.19 41 9.6 41 9C41 8.25 41.1 7.5 41.31 6.77C41.52 6.05 41.83 5.36 42.23 4.72C42.63 4.08 43.12 3.51 43.69 3.01C44.26 2.51 44.89 2.1 45.57 1.78C45.73 1.71 45.89 1.68 46.06 1.69C46.23 1.7 46.39 1.75 46.53 1.84C46.68 1.93 46.79 2.05 46.87 2.2C46.96 2.35 47 2.51 47 2.68L47 8.28L49 8.95L51 8.28L51 2.68C51 2.51 51.04 2.35 51.12 2.2C51.21 2.05 51.32 1.93 51.46 1.84C51.61 1.75 51.77 1.69 51.94 1.68C52.11 1.67 52.27 1.7 52.43 1.78C53.11 2.09 53.74 2.51 54.31 3.01C54.88 3.5 55.37 4.08 55.77 4.72C56.18 5.35 56.49 6.05 56.69 6.77C56.9 7.5 57 8.25 57 9C57 9.6 56.93 10.19 56.8 10.78C56.67 11.36 56.47 11.92 56.21 12.46C55.95 13 55.63 13.51 55.26 13.98C54.89 14.44 54.47 14.87 54 15.24L54 24.87C54.06 24.87 54.11 24.88 54.17 24.9C54.22 24.91 54.28 24.93 54.33 24.96C54.38 24.98 54.43 25.01 54.48 25.04C54.52 25.07 54.57 25.11 54.61 25.15L58.85 29.39C58.93 29.48 59 29.58 59.05 29.68C59.1 29.79 59.13 29.91 59.14 30.03C59.15 30.15 59.13 30.27 59.1 30.38C59.07 30.5 59.01 30.6 58.94 30.7L56.58 33.85C56.64 33.98 56.7 34.11 56.76 34.24C56.82 34.38 56.88 34.51 56.93 34.64C56.99 34.78 57.04 34.91 57.09 35.04C57.14 35.18 57.19 35.32 57.23 35.45L61.14 36.01ZM52 26.03L52 14.74C52 14.66 52.01 14.58 52.03 14.5C52.05 14.42 52.08 14.35 52.11 14.28C52.15 14.21 52.2 14.14 52.25 14.08C52.3 14.02 52.36 13.97 52.43 13.92C53.17 13.4 53.79 12.73 54.23 11.94C54.68 11.15 54.94 10.26 54.99 9.36C55.05 8.46 54.9 7.55 54.55 6.71C54.21 5.87 53.68 5.13 53 4.52L53 9C53 9.1 52.98 9.21 52.95 9.31C52.92 9.41 52.87 9.5 52.81 9.58C52.75 9.67 52.68 9.74 52.59 9.81C52.51 9.87 52.41 9.92 52.32 9.95L49.32 10.95C49.27 10.97 49.21 10.98 49.16 10.99C49.11 11 49.05 11 49 11C48.95 11 48.89 11 48.84 10.99C48.79 10.98 48.73 10.97 48.68 10.95L45.68 9.95C45.59 9.92 45.49 9.87 45.41 9.81C45.32 9.74 45.25 9.67 45.19 9.58C45.13 9.5 45.08 9.41 45.05 9.31C45.02 9.21 45 9.1 45 9L45 4.52C44.32 5.13 43.79 5.87 43.45 6.71C43.11 7.55 42.96 8.45 43.01 9.36C43.07 10.26 43.32 11.14 43.77 11.93C44.21 12.72 44.83 13.4 45.57 13.92C45.64 13.96 45.7 14.02 45.75 14.08C45.8 14.14 45.85 14.21 45.89 14.28C45.92 14.35 45.95 14.42 45.97 14.5C45.99 14.58 46 14.66 46 14.74L46 22L47 22C47.12 22 47.24 22.02 47.35 22.06C47.46 22.1 47.56 22.17 47.66 22.24C47.75 22.32 47.82 22.42 47.88 22.52C47.94 22.63 47.97 22.74 47.99 22.86L48 22.93L48 15L50 15L50 27.36C50.04 27.38 50.1 27.4 50.14 27.42L52 26.03ZM37 40C37 40.26 37.01 40.53 37.05 40.79C37.08 41.06 37.12 41.32 37.18 41.57C37.24 41.83 37.32 42.09 37.41 42.33C37.5 42.58 37.6 42.83 37.72 43.06C37.98 43.26 38.23 43.47 38.47 43.69C38.71 43.91 38.94 44.14 39.16 44.39C39.38 44.63 39.58 44.88 39.78 45.14C39.98 45.4 40.16 45.66 40.33 45.94C43.07 47.64 46.6 47.27 48.92 45.04C51.25 42.82 51.77 39.31 50.2 36.5C48.62 33.7 45.35 32.31 42.24 33.14C39.13 33.96 36.98 36.78 37 40ZM33.38 31.92C33.5 31.87 33.61 31.8 33.71 31.71C33.8 31.61 33.87 31.5 33.92 31.38C33.97 31.26 34 31.13 34 31L34 29L33 29C32.94 29 32.87 28.99 32.81 28.99C32.76 29.25 32.71 29.51 32.64 29.77C32.57 30.02 32.49 30.28 32.41 30.53C32.32 30.78 32.23 31.03 32.12 31.28C32.02 31.52 31.91 31.76 31.79 32L33 32C33.13 32 33.26 31.97 33.38 31.92ZM31 20C31 17.61 30.05 15.32 28.36 13.64C26.68 11.95 24.39 11 22 11C19.61 11 17.32 11.95 15.64 13.64C13.95 15.32 13 17.61 13 20L13 21L18.9 21C19.18 21 19.46 20.97 19.74 20.93C20.02 20.88 20.29 20.81 20.55 20.71C20.82 20.62 21.07 20.51 21.32 20.37C21.57 20.23 21.8 20.08 22.02 19.9L25.38 17.22C25.43 17.18 25.48 17.14 25.54 17.11C25.6 17.08 25.67 17.06 25.73 17.04C25.79 17.02 25.86 17.01 25.93 17C25.99 17 26.06 17 26.13 17.01C26.19 17.02 26.26 17.03 26.32 17.05C26.38 17.07 26.45 17.1 26.5 17.14C26.56 17.17 26.61 17.21 26.66 17.25C26.71 17.3 26.76 17.35 26.8 17.4L28.6 19.8C28.74 19.99 28.9 20.15 29.08 20.3C29.26 20.45 29.45 20.58 29.66 20.68C29.87 20.79 30.09 20.86 30.31 20.92C30.54 20.97 30.77 21 31 21L31 20ZM36 23C36 22.87 35.97 22.74 35.92 22.62C35.87 22.5 35.8 22.39 35.71 22.29C35.61 22.2 35.5 22.13 35.38 22.08C35.26 22.03 35.13 22 35 22L33 22L33 27L35 27C35.13 27 35.26 26.97 35.38 26.92C35.5 26.87 35.61 26.8 35.71 26.71C35.8 26.61 35.87 26.5 35.92 26.38C35.97 26.26 36 26.13 36 26L36 23ZM22 7C20.42 7 18.86 7.31 17.41 7.92C15.95 8.52 14.63 9.4 13.52 10.52C12.4 11.63 11.52 12.95 10.92 14.41C10.31 15.86 10 17.42 10 19L10 20L11 20C11 17.08 12.16 14.28 14.22 12.22C16.28 10.16 19.08 9 22 9C24.92 9 27.72 10.16 29.78 12.22C31.84 14.28 33 17.08 33 20L34 20L34 19C34 17.42 33.69 15.86 33.08 14.41C32.48 12.95 31.6 11.63 30.48 10.52C29.37 9.4 28.05 8.52 26.59 7.92C25.14 7.31 23.58 7 22 7ZM11 27L11 22L9 22C8.87 22 8.74 22.03 8.62 22.08C8.5 22.13 8.39 22.2 8.29 22.29C8.2 22.39 8.13 22.5 8.08 22.62C8.03 22.74 8 22.87 8 23L8 26C8 26.13 8.03 26.26 8.08 26.38C8.13 26.5 8.2 26.61 8.29 26.71C8.39 26.8 8.5 26.87 8.62 26.92C8.74 26.97 8.87 27 9 27L11 27ZM13 27C13 28.7 13.48 30.36 14.38 31.8C15.29 33.24 16.58 34.39 18.11 35.12C19.65 35.85 21.35 36.14 23.04 35.94C24.73 35.74 26.32 35.07 27.64 34L22 34L22 32L29.48 32C29.72 31.63 29.94 31.25 30.13 30.85C30.32 30.45 30.48 30.04 30.61 29.61C30.74 29.19 30.84 28.76 30.9 28.32C30.97 27.88 31 27.44 31 27L31 23C30.61 23 30.23 22.95 29.85 22.86C29.48 22.77 29.11 22.64 28.77 22.47C28.42 22.3 28.09 22.08 27.8 21.84C27.5 21.59 27.23 21.31 27 21L25.82 19.43L23.27 21.47C22.96 21.71 22.64 21.93 22.29 22.12C21.95 22.31 21.59 22.47 21.22 22.6C20.84 22.73 20.46 22.83 20.07 22.9C19.69 22.97 19.29 23 18.9 23L13 23L13 27ZM22 38C21.75 38 21.49 37.99 21.24 37.97C20.99 37.95 20.74 37.93 20.49 37.89C20.23 37.86 19.98 37.81 19.74 37.76C19.49 37.71 19.24 37.64 19 37.57L19 39C19 39.8 19.32 40.56 19.88 41.12C20.44 41.68 21.2 42 22 42C22.8 42 23.56 41.68 24.12 41.12C24.68 40.56 25 39.8 25 39L25 37.57C24.76 37.64 24.51 37.71 24.26 37.76C24.02 37.81 23.77 37.86 23.51 37.89C23.26 37.93 23.01 37.95 22.76 37.97C22.51 37.99 22.25 38 22 38ZM40 51.77C40 50.88 39.87 49.99 39.61 49.13C39.35 48.27 38.96 47.46 38.46 46.72C37.96 45.98 37.35 45.32 36.65 44.76C35.95 44.2 35.17 43.74 34.34 43.41L26.78 40.39C26.48 41.43 25.86 42.34 24.99 43C24.13 43.65 23.08 44 22 44C20.92 44 19.87 43.65 19.01 43C18.14 42.34 17.52 41.43 17.22 40.39L9.66 43.41C8.83 43.74 8.05 44.2 7.35 44.76C6.65 45.32 6.04 45.98 5.54 46.72C5.04 47.46 4.65 48.27 4.39 49.13C4.13 49.99 4 50.88 4 51.77L4 60L10 60L10 49L12 49L12 60L32 60L32 49L34 49L34 60L40 60L40 51.77Z" />
		<path id="Layer" class="shp0" d="M43 26L45 26L45 28L43 28L43 26Z" />
		<path id="Layer" class="shp0" d="M43 52L45 52L45 54L43 54L43 52Z" />
		<path id="Layer" class="shp0" d="M51.78 49.19L53.19 47.78L54.61 49.19L53.19 50.61L51.78 49.19Z" />
		<path id="Layer" class="shp0" d="M56 39L58 39L58 41L56 41L56 39Z" />
		<path id="Layer" class="shp0" d="M51.78 30.81L53.19 29.39L54.61 30.81L53.19 32.22L51.78 30.81Z" />
	</g>
</svg>