<svg version="1.2" baseProfile="tiny-ps" xmlns="http://www.w3.org/2000/svg" viewBox="0 0 512 512" width="512" height="512">
	<title>development-svg</title>
	<style>
		tspan { white-space:pre }
		.shp0 { fill: #ffffff } 
	</style>
	<g id="Layer">
		<path id="Layer" fill-rule="evenodd" class="shp0" d="M474.43 30.11C495.15 30.11 512 46.96 512 67.68L512 371.53C512 392.25 495.14 409.1 474.43 409.1L418.88 409.1C414.73 409.1 411.37 405.74 411.37 401.59C411.37 397.44 414.73 394.07 418.88 394.07L474.43 394.07C486.86 394.07 496.97 383.96 496.97 371.53L496.97 345.72L15.03 345.72L15.03 371.53C15.03 383.96 25.14 394.07 37.57 394.07L388.83 394.07C392.98 394.07 396.34 397.44 396.34 401.59C396.34 405.74 392.98 409.1 388.83 409.1L309.2 409.1L316.77 466.86L343.47 466.86C347.62 466.86 350.99 470.23 350.99 474.38C350.99 478.53 347.62 481.89 343.47 481.89L168.53 481.89C164.38 481.89 161.01 478.53 161.01 474.38C161.01 470.23 164.38 466.86 168.53 466.86L195.23 466.86L202.8 409.1L37.57 409.1C16.86 409.1 0 392.25 0 371.53L0 67.68C0 46.96 16.86 30.11 37.57 30.11L280.61 30.11C284.76 30.11 288.13 33.47 288.13 37.62C288.13 41.77 284.76 45.14 280.61 45.14L37.57 45.14C25.14 45.14 15.03 55.25 15.03 67.68L15.03 330.69L51.06 330.69L51.06 99.84C51.06 87.41 61.17 77.3 73.6 77.3L438.4 77.3C450.83 77.3 460.94 87.41 460.94 99.84L460.94 330.69L496.97 330.69L496.97 67.68C496.97 55.25 486.86 45.14 474.43 45.14L310.67 45.14C306.52 45.14 303.16 41.77 303.16 37.62C303.16 33.47 306.52 30.11 310.67 30.11L474.43 30.11ZM294.04 409.1L217.96 409.1L210.39 466.86L301.61 466.86L294.04 409.1ZM66.09 136.83L445.91 136.83L445.91 99.84C445.91 95.7 442.54 92.33 438.4 92.33L73.6 92.33C69.46 92.33 66.09 95.7 66.09 99.84L66.09 136.83ZM66.09 330.69L102.62 330.69L102.62 297.19C102.62 293.04 105.99 289.67 110.14 289.67L238.01 289.67C242.16 289.67 245.53 293.04 245.53 297.19L245.53 330.69L266.47 330.69L266.47 297.19C266.47 293.04 269.84 289.67 273.99 289.67L401.86 289.67C406.02 289.67 409.38 293.04 409.38 297.19L409.38 330.69L445.91 330.69L445.91 151.86L66.09 151.86L66.09 330.69ZM394.35 304.7L281.5 304.7L281.5 330.69L394.35 330.69L394.35 304.7ZM230.5 304.7L117.65 304.7L117.65 330.69L230.5 330.69L230.5 304.7Z" />
		<path id="Layer" class="shp0" d="M94.75 102.45C88.38 102.45 83.21 107.63 83.21 114C83.21 120.36 88.38 125.54 94.75 125.54C101.11 125.54 106.29 120.36 106.29 114C106.29 107.63 101.11 102.45 94.75 102.45L94.75 102.45Z" />
		<path id="Layer" class="shp0" d="M131.79 102.45C125.43 102.45 120.25 107.63 120.25 114C120.25 120.36 125.43 125.54 131.79 125.54C138.16 125.54 143.33 120.36 143.33 114C143.33 107.63 138.16 102.45 131.79 102.45L131.79 102.45Z" />
		<path id="Layer" class="shp0" d="M168.83 102.45C162.47 102.45 157.29 107.63 157.29 114C157.29 120.36 162.47 125.54 168.83 125.54C175.2 125.54 180.38 120.36 180.38 114C180.38 107.63 175.2 102.45 168.83 102.45L168.83 102.45Z" />
		<path id="Layer" class="shp0" d="M110.14 271.33L164.81 271.33C168.96 271.33 172.32 267.97 172.32 263.82C172.32 259.67 168.96 256.3 164.81 256.3L117.65 256.3L117.65 190.36L394.33 190.36L394.33 256.3L194.86 256.3C190.71 256.3 187.35 259.67 187.35 263.82C187.35 267.97 190.71 271.33 194.86 271.33L401.85 271.33C406 271.33 409.36 267.97 409.36 263.82L409.36 182.85C409.36 178.7 406 175.34 401.85 175.34L110.14 175.34C105.98 175.34 102.62 178.7 102.62 182.85L102.62 263.82C102.62 267.97 105.98 271.33 110.14 271.33L110.14 271.33Z" />
	</g>
</svg>