<svg version="1.2" baseProfile="tiny-ps" xmlns="http://www.w3.org/2000/svg" viewBox="0 0 512 512" width="512" height="512">
	<title>maintenance-svg</title>
	<style>
		tspan { white-space:pre }
		.shp0 { fill: #ffffff } 
	</style>
	<path id="XMLID_294_" fill-rule="evenodd" class="shp0" d="M512 110L512 398C512 414.54 498.54 428 482 428L306 428L306 452L325.02 452C341.57 452 355.02 465.45 355.02 482L355.02 502C355.02 507.52 350.55 512 345.02 512L166.98 512C161.45 512 156.98 507.52 156.98 502L156.98 482C156.98 465.45 170.43 452 186.98 452L206 452L206 428L30 428C13.46 428 0 414.54 0 398L0 110C0 93.46 13.46 80 30 80L54 80L54 30C54 13.46 67.46 0 84 0L428 0C444.54 0 458 13.46 458 30L458 80L482 80C498.54 80 512 93.46 512 110ZM458 100L458 340L492 340L492 110C492 104.49 487.51 100 482 100L458 100ZM74 30L74 80L438 80L438 30C438 24.49 433.51 20 428 20L84 20C78.49 20 74 24.49 74 30ZM30 100C24.49 100 20 104.49 20 110L20 340L54 340L54 264.99C54 259.47 58.48 254.99 64 254.99C69.52 254.99 74 259.47 74 264.99L74 340L125 340L125 307.04C125 301.52 129.48 297.04 135 297.04L148.01 297.04C150.3 289.17 153.43 281.6 157.39 274.41L148.19 265.2C144.28 261.3 144.28 254.97 148.19 251.06L178.55 220.7C182.45 216.8 188.78 216.8 192.69 220.7L201.89 229.91C209.09 225.95 216.66 222.81 224.53 220.52L224.53 207.51C224.53 201.99 229.01 197.51 234.53 197.51L277.47 197.51C282.99 197.51 287.47 201.99 287.47 207.51L287.47 220.52C295.34 222.81 302.91 225.95 310.1 229.91L319.31 220.7C323.21 216.8 329.55 216.8 333.45 220.7L363.81 251.06C367.72 254.97 367.72 261.3 363.81 265.2L354.61 274.41C358.56 281.6 361.7 289.17 363.99 297.04L377 297.04C382.52 297.04 387 301.52 387 307.04L387 340L438 340L438 100L74 100L74 174.99C74 180.51 69.52 184.99 64 184.99C58.48 184.99 54 180.51 54 174.99L54 100L30 100ZM177.04 265.77C180.38 269.11 180.93 274.33 178.36 278.29C172.23 287.75 167.93 298.13 165.58 309.13C164.6 313.75 160.52 317.04 155.8 317.04L145 317.04L145 340L207.34 340C206.45 336.25 205.99 332.39 205.99 328.51C205.99 300.94 228.43 278.51 256 278.51C283.57 278.51 306.01 300.94 306.01 328.51C306.01 332.39 305.55 336.25 304.66 340L367 340L367 317.04L356.2 317.04C351.48 317.04 347.4 313.74 346.42 309.13C344.07 298.13 339.77 287.75 333.64 278.29C331.07 274.33 331.62 269.11 334.96 265.77L342.6 258.13L326.38 241.91L318.74 249.56C315.4 252.89 310.19 253.44 306.23 250.88C296.76 244.74 286.39 240.44 275.38 238.09C270.77 237.11 267.47 233.03 267.47 228.31L267.47 217.51L244.53 217.51L244.53 228.31C244.53 233.03 241.23 237.11 236.62 238.09C225.61 240.44 215.24 244.74 205.77 250.88C201.81 253.44 196.6 252.89 193.26 249.56L185.62 241.91L169.4 258.13L177.04 265.77ZM225.99 328.51C225.99 332.46 226.79 336.36 228.31 340L283.69 340C285.21 336.36 286.01 332.46 286.01 328.51C286.01 311.97 272.55 298.51 256 298.51C239.45 298.51 225.99 311.97 225.99 328.51ZM325.02 472L186.98 472C181.46 472 176.98 476.48 176.98 482L176.98 492L335.02 492L335.02 482C335.02 476.48 330.54 472 325.02 472ZM286 428L226 428L226 452L286 452L286 428ZM492 398L492 360L20 360L20 398C20 403.51 24.49 408 30 408L482 408C487.51 408 492 403.51 492 398Z" />
	<path id="XMLID_1617_" class="shp0" d="M286 60L394 60C399.52 60 404 55.52 404 50C404 44.48 399.52 40 394 40L286 40C280.48 40 276 44.48 276 50C276 55.52 280.48 60 286 60Z" />
	<path id="XMLID_1618_" class="shp0" d="M162 60C164.63 60 167.21 58.93 169.07 57.07C170.93 55.21 172 52.63 172 50C172 47.37 170.93 44.79 169.07 42.93C167.21 41.07 164.63 40 162 40C159.37 40 156.79 41.07 154.93 42.93C153.07 44.79 152 47.37 152 50C152 52.63 153.07 55.21 154.93 57.07C156.79 58.93 159.37 60 162 60Z" />
	<path id="XMLID_1620_" class="shp0" d="M118 60C120.63 60 123.21 58.93 125.07 57.07C126.93 55.21 128 52.63 128 50C128 47.37 126.93 44.79 125.07 42.93C123.21 41.07 120.63 40 118 40C115.37 40 112.79 41.07 110.93 42.93C109.07 44.79 108 47.37 108 50C108 52.63 109.07 55.21 110.93 57.07C112.79 58.93 115.37 60 118 60Z" />
	<path id="XMLID_1623_" class="shp0" d="M206 60C208.63 60 211.21 58.93 213.07 57.07C214.93 55.21 216 52.63 216 50C216 47.37 214.93 44.79 213.07 42.93C211.21 41.07 208.63 40 206 40C203.37 40 200.79 41.07 198.93 42.93C197.07 44.79 196 47.37 196 50C196 52.63 197.07 55.21 198.93 57.07C200.79 58.93 203.37 60 206 60Z" />
	<path id="XMLID_1624_" class="shp0" d="M112 148L135.8 148C141.32 148 145.8 143.52 145.8 138C145.8 132.47 141.32 128 135.8 128L112 128C106.48 128 102 132.47 102 138C102 143.52 106.48 148 112 148Z" />
	<path id="XMLID_1626_" class="shp0" d="M179.8 148L271.54 148C277.06 148 281.54 143.52 281.54 138C281.54 132.47 277.06 128 271.54 128L179.8 128C174.28 128 169.8 132.47 169.8 138C169.8 143.52 174.28 148 179.8 148Z" />
	<path id="XMLID_1627_" class="shp0" d="M112 196L170 196C175.52 196 180 191.52 180 186C180 180.47 175.52 176 170 176L112 176C106.48 176 102 180.47 102 186C102 191.52 106.48 196 112 196Z" />
	<path id="XMLID_1628_" class="shp0" d="M315.54 148L400 148C405.52 148 410 143.52 410 138C410 132.47 405.52 128 400 128L315.54 128C310.01 128 305.54 132.47 305.54 138C305.54 143.52 310.01 148 315.54 148Z" />
	<path id="XMLID_1633_" class="shp0" d="M400 176L331.56 176C326.04 176 321.56 180.47 321.56 186C321.56 191.52 326.04 196 331.56 196L400 196C405.52 196 410 191.52 410 186C410 180.47 405.52 176 400 176Z" />
	<path id="XMLID_1635_" class="shp0" d="M64 229.99C66.63 229.99 69.21 228.92 71.07 227.06C72.93 225.2 74 222.62 74 219.99C74 217.36 72.93 214.78 71.07 212.92C69.21 211.06 66.63 209.99 64 209.99C61.37 209.99 58.79 211.06 56.93 212.92C55.07 214.78 54 217.36 54 219.99C54 222.62 55.07 225.2 56.93 227.06C58.79 228.92 61.37 229.99 64 229.99L64 229.99Z" />
</svg>